<?xml version="1.0" encoding="utf-8"?>
<!-- Generator: Adobe Illustrator 19.2.1, SVG Export Plug-In . SVG Version: 6.00 Build 0)  -->
<svg version="1.1" id="Layer_1" xmlns="http://www.w3.org/2000/svg" xmlns:xlink="http://www.w3.org/1999/xlink" x="0px" y="0px"
	 viewBox="0 0 200.2 51.2" style="enable-background:new 0 0 200.2 51.2;" xml:space="preserve">
<style type="text/css">
	.st0{fill:#FFFFFF;}
</style>
<g>
	<path class="st0" d="M15.8,12.5c-0.9-0.4-1.8-0.6-2.7-0.6c-3.3,0-6.4,2.8-6.4,7.2c0,5.1,3.5,9.1,10.4,9.2
		c0.1-12,6.2-26.7,15.7-26.7c4.4,0,6.5,3.3,6.5,7.7c0,7.8-6.6,18.9-18.8,20.6c0,5.7,1.1,10.4,4.4,11.4c-0.1-0.9-0.2-1.8-0.2-2.7
		c0-5.5,2.6-10.9,7.2-10.9c3.1,0,4.7,2.6,4.7,5.6c0,4-2.7,8.8-8.2,9.8c0.9,2,2.3,3.5,4.4,4l-1,2.6c-3.3-0.7-5.4-3.3-6.4-6.4
		c-5.3-0.5-7.9-6.1-8.3-13.1c-8.8,0-13.6-5.3-13.6-11.3c0-6.3,4.7-10.1,9.6-10.1c1.4,0,2.8,0.3,4.2,1L15.8,12.5z M20.7,27.9
		c10.3-2,15.4-12.7,15.4-19.3c0-3.1-1.1-5.2-3.2-5.2C26.5,3.4,21.4,17,20.7,27.9z M27.3,37.5c0,1.3,0.1,2.6,0.5,3.8
		c3.9-1,6.1-5.4,6.1-8.6c0-1.8-0.7-3.2-2.3-3.2C28.9,29.4,27.3,33.3,27.3,37.5z"/>
	<path class="st0" d="M52.3,26.2c-0.9,2.2-2.5,3.8-4.3,4.4c-1.3,2.7-3.1,4.3-5.5,4.3c-2.6,0-3.7-2.7-3.7-6c0-2.1,0.4-4.4,1.1-6.6
		l1.3,0.3c0.4-2.8,2-5.3,4.6-5.3c2.5,0,3.8,2.8,3.8,6.2c0,1.8-0.4,3.7-0.9,5.3c1-0.4,1.9-1.4,2.5-3.1C51.5,25.6,52.3,25.9,52.3,26.2
		z M44.7,30.6c-1.6-0.6-2.6-2.1-3.1-3.9c-0.1,0.6-0.1,1.1-0.1,1.6c0,2.2,0.6,3.7,1.5,3.7c0.1,0,0.2,0,0.3,0
		C43.8,31.9,44.2,31.3,44.7,30.6z M43.2,24.6c0,2,0.6,3.9,2.3,4.4c0.8-2,1.4-4.6,1.4-6.5c0-1.7-0.4-2.9-1.4-2.9c-0.1,0-0.2,0-0.3,0
		C44,19.9,43.2,22.3,43.2,24.6z"/>
	<path class="st0" d="M49.5,34.5c0,0,0.3-3.4,1.4-6.1c0.7-4.2,1.4-7.9,1.8-10.7h3.2l-0.5,2.8c1.1-1.9,2.5-3.2,4-3.2
		c1.4,0,2,1.1,2,2.6c0,0.3,0,0.6-0.1,0.9c1.3-2.1,2.9-3.5,4.6-3.5c1.3,0,2.1,0.9,2.1,2.6c0,3.4-2.4,7.8-2.4,10.9
		c0,1.1,0.4,1.3,0.7,1.3c1,0,2.2-2.1,3.8-6.3c0.2,0,1,0.3,1,0.5c-1.6,4.2-3.3,8.5-6.3,8.5c-1.3,0-2.5-1-2.5-3.3
		c0-4,2.4-8.1,2.4-10.8c0-0.4-0.2-0.7-0.6-0.7c-0.9,0-2.6,1.8-3.8,7.2c-0.6,3-1.2,6-1.5,7.4h-3.4c0.9-4.1,2.6-12,2.6-13.6
		c0-0.6-0.2-0.8-0.5-0.8c-1.2,0-2.7,2.9-3.7,8.2l-1.2,6.2H49.5z"/>
	<path class="st0" d="M75.1,17.6c-1.3,5.8-2.4,10.1-2.4,13.1c0,1.1,0.4,1.3,0.7,1.3c1,0,2.2-2.1,3.8-6.3c0.2,0,1,0.3,1,0.5v0
		c-1.6,4.2-2.9,8.5-6,8.5c-2,0-2.7-1.9-2.7-4.4c0-4.1,1.6-10,2.3-12.7H75.1z M72.4,13.6c0-1.3,1-2.9,2.6-2.9c1.2,0,1.7,0.9,1.7,1.9
		c0,1.3-1,2.9-2.6,2.9C73,15.5,72.4,14.6,72.4,13.6z"/>
	<path class="st0" d="M75.5,34.5c0,0,0.3-3.4,1.4-6.1c0.7-4.2,1.4-7.9,1.8-10.7h3.2l-0.4,2.5c1.2-1.8,2.7-2.9,4.2-2.9
		c1.3,0,2.1,0.9,2.1,2.6c0,3.4-2.4,7.8-2.4,10.9c0,1.1,0.4,1.3,0.7,1.3c1,0,2.2-2.1,3.8-6.3c0.2,0,1,0.3,1,0.5
		c-1.6,4.2-3.3,8.5-6.3,8.5c-1.3,0-2.5-1-2.5-3.3c0-4,2.4-8.1,2.4-10.8c0-0.4-0.2-0.7-0.6-0.7c-0.9,0-2.6,1.7-3.8,7l-1.5,7.7H75.5z"
		/>
	<path class="st0" d="M103.4,26.1C103.4,26.2,103.4,26.2,103.4,26.1c-1.4,3.7-3.4,6.3-5.4,8.4l-0.8,4.8c-0.6,3.7-2,6.5-4.4,6.5
		c-1.7,0-2.8-1-2.8-2.9c0-2.6,2.4-4.7,5.1-7.3c0.2-1.1,0.4-2.3,0.6-3.4c-0.9,1.7-2.1,2.8-3.7,2.8c-1.8,0-2.6-2-2.6-4.7
		c0-5.2,2.8-12.9,6.4-12.9c1.1,0,1.8,0.7,2,2l0.3-1.6h3c-0.4,1.6-1.7,8.5-2.7,14.4c1.6-1.8,3-3.8,4-6.4
		C102.7,25.6,103.4,25.9,103.4,26.1z M92.7,43.8c0.6,0,0.9-0.7,1.1-1.9l0.7-4c-1.6,1.6-2.6,3.1-2.6,4.8
		C91.9,43.5,92.3,43.8,92.7,43.8z M92.5,29.8c0,1.1,0.2,1.9,0.8,1.9c1.7,0,3.8-6,3.8-9.5c0-1.4-0.3-2.3-1.1-2.3
		C94.3,19.9,92.5,26.4,92.5,29.8z"/>
	<path class="st0" d="M110,27.5c2,0.4,4.1,0.6,6,0.7c0-0.1,0-0.3,0-0.5c0-7.4,4.2-14.6,12.3-14.6c6.1,0,9,4.6,9.4,9.8
		c1.6-1,3.1-2.1,4.4-3.3c-0.1-1.4-0.1-2.7-0.1-3.9c0-10.3,2.3-14,5.6-14c2.4,0,3.3,2,3.3,4c0,4-1.9,8.5-5.2,12.5l0.1,2.6
		c0,0.5,0,1,0,1.4c0,11-5.4,20.9-16,20.9c-8,0-12.4-5.7-13.5-12.1c-2.3,0-4.6-0.2-7.1-0.6L110,27.5z M135.4,23.4
		c0-4.5-2.4-8.7-7.2-8.7c-5.8,0-9,6.3-9,12.7c0,0.2,0,0.5,0,0.7c6.1-0.2,11.6-1.7,16.2-4.1C135.4,23.9,135.4,23.6,135.4,23.4z
		 M129.8,33.9c2.8-1.6,4.5-4.3,5.2-7.3c-4.4,2.3-9.7,3.9-15.5,4.3c1,5.4,4.6,10.2,11,10.2c7.3,0,11.6-7.5,11.6-18c0-0.4,0-0.9,0-1.4
		c-1.4,1.2-2.8,2.3-4.5,3.4c-0.3,4.8-2.4,9.7-6,11.6L129.8,33.9z M147.6,3.8c-1.9,0-2.3,2-2.3,5.7c0,1.7,0.1,3.8,0.2,6.2
		c2.2-3.1,3.4-6.6,3.4-10C148.9,4.6,148.5,3.8,147.6,3.8z"/>
	<path class="st0" d="M161.4,26.2c-0.9,2.2-2.5,3.8-4.3,4.4c-1.3,2.7-3.1,4.3-5.5,4.3c-2.6,0-3.7-2.7-3.7-6c0-2.1,0.4-4.4,1.1-6.6
		l1.3,0.3c0.4-2.8,2-5.3,4.6-5.3c2.5,0,3.8,2.8,3.8,6.2c0,1.8-0.4,3.7-0.9,5.3c1-0.4,1.9-1.4,2.5-3.1
		C160.6,25.6,161.4,25.9,161.4,26.2z M153.8,30.6c-1.6-0.6-2.6-2.1-3.1-3.9c-0.1,0.6-0.1,1.1-0.1,1.6c0,2.2,0.6,3.7,1.5,3.7
		c0.1,0,0.2,0,0.3,0C152.9,31.9,153.3,31.3,153.8,30.6z M152.3,24.6c0,2,0.6,3.9,2.3,4.4c0.8-2,1.4-4.6,1.4-6.5
		c0-1.7-0.4-2.9-1.4-2.9c-0.1,0-0.2,0-0.3,0C153.2,19.9,152.3,22.3,152.3,24.6z"/>
	<path class="st0" d="M173.6,26.2c-0.9,2.2-2.5,3.8-4.3,4.4c-1.3,2.7-3.1,4.3-5.5,4.3c-2.6,0-3.7-2.7-3.7-6c0-2.1,0.4-4.4,1.1-6.6
		l1.3,0.3c0.4-2.8,2-5.3,4.6-5.3c2.5,0,3.8,2.8,3.8,6.2c0,1.8-0.4,3.7-0.9,5.3c1-0.4,1.9-1.4,2.5-3.1
		C172.8,25.6,173.6,25.9,173.6,26.2z M165.9,30.6c-1.6-0.6-2.6-2.1-3.1-3.9c-0.1,0.6-0.1,1.1-0.1,1.6c0,2.2,0.6,3.7,1.5,3.7
		c0.1,0,0.2,0,0.3,0C165,31.9,165.5,31.3,165.9,30.6z M164.4,24.6c0,2,0.6,3.9,2.3,4.4c0.8-2,1.4-4.6,1.4-6.5c0-1.7-0.4-2.9-1.4-2.9
		c-0.1,0-0.2,0-0.3,0C165.3,19.9,164.4,22.3,164.4,24.6z"/>
	<path class="st0" d="M170.7,34.5c0,0,0.3-3.4,1.4-6.1c0.7-4.2,1.4-7.9,1.8-10.7h3.2l-0.4,2.5c1.2-1.8,2.7-2.9,4.2-2.9
		c1.3,0,2.1,0.9,2.1,2.6c0,3.4-2.4,7.8-2.4,10.9c0,1.1,0.4,1.3,0.7,1.3c1,0,2.2-2.1,3.8-6.3c0.2,0,1,0.3,1,0.5
		c-1.6,4.2-3.3,8.5-6.3,8.5c-1.3,0-2.5-1-2.5-3.3c0-4,2.4-8.1,2.4-10.8c0-0.4-0.2-0.7-0.6-0.7c-0.9,0-2.6,1.7-3.8,7l-1.5,7.7H170.7z
		"/>
	<path class="st0" d="M185.7,33c0-1.3,1-2.9,2.6-2.9c1.2,0,1.7,0.9,1.7,1.9c0,1.3-1,2.9-2.6,2.9C186.3,34.9,185.7,34,185.7,33z
		 M196.6,8.4c-2.7,6.6-4.6,12.1-6.6,19.8l-2.1-0.3c1.7-8.1,3.1-13.7,5.3-20.4L196.6,8.4z"/>
</g>
</svg>
