<?xml version="1.0" encoding="utf-8"?>
<!-- Generator: Adobe Illustrator 19.2.1, SVG Export Plug-In . SVG Version: 6.00 Build 0)  -->
<svg version="1.1" id="Layer_1" xmlns="http://www.w3.org/2000/svg" xmlns:xlink="http://www.w3.org/1999/xlink" x="0px" y="0px"
	 viewBox="0 0 180 25.7" style="enable-background:new 0 0 180 25.7;" xml:space="preserve">
<style type="text/css">
	.st0{fill:#FFFFFF;}
</style>
<g>
	<path class="st0" d="M20.1,1.5c0.2,0,0.3,0.1,0.4,0.2c0.1,0.1,0.2,0.3,0.2,0.4v21.4c0,0.2-0.1,0.3-0.2,0.4
		c-0.1,0.1-0.3,0.2-0.4,0.2h-4.5c-0.2,0-0.3-0.1-0.4-0.2c-0.1-0.1-0.2-0.3-0.2-0.4v-7.5c0-0.2-0.1-0.3-0.2-0.4
		c-0.1-0.1-0.2-0.2-0.4-0.2H8c-0.2,0-0.3,0.1-0.4,0.2c-0.1,0.1-0.2,0.2-0.2,0.4v7.5c0,0.4-0.2,0.6-0.6,0.6H2.3
		c-0.4,0-0.6-0.2-0.6-0.6V2.1c0-0.4,0.2-0.6,0.6-0.6h4.5c0.4,0,0.6,0.2,0.6,0.6v7.2C7.4,9.8,7.6,10,8,10h6.4c0.2,0,0.3-0.1,0.4-0.2
		C15,9.7,15,9.5,15,9.4V2.1c0-0.2,0.1-0.3,0.2-0.4c0.1-0.1,0.3-0.2,0.4-0.2H20.1z"/>
	<path class="st0" d="M41.1,1.5c0.5,0,1,0.1,1.5,0.3C43,2,43.4,2.3,43.7,2.6c0.3,0.3,0.6,0.7,0.8,1.2c0.2,0.5,0.3,1,0.3,1.5v18.2
		c0,0.2-0.1,0.3-0.2,0.4c-0.1,0.1-0.3,0.2-0.4,0.2h-4.5c-0.2,0-0.3-0.1-0.4-0.2c-0.1-0.1-0.2-0.3-0.2-0.4v-5.8
		c0-0.2-0.1-0.3-0.2-0.4c-0.1-0.1-0.2-0.2-0.4-0.2h-6.4c-0.2,0-0.3,0.1-0.4,0.2c-0.1,0.1-0.2,0.3-0.2,0.4v5.8c0,0.4-0.2,0.6-0.6,0.6
		h-4.5c-0.4,0-0.6-0.2-0.6-0.6V5.3c0-0.5,0.1-1,0.3-1.5c0.2-0.5,0.5-0.9,0.8-1.2s0.7-0.6,1.2-0.8c0.5-0.2,1-0.3,1.5-0.3H41.1z
		 M39.1,12.3V6.6h-7.6v5.7H39.1z"/>
	<path class="st0" d="M55.7,7.2c-0.1,0.1-0.2,0.2-0.2,0.4v10.5c0,0.2,0.1,0.3,0.2,0.4s0.3,0.2,0.4,0.2h10.4c0.2,0,0.3,0.1,0.4,0.2
		s0.2,0.3,0.2,0.4v4.3c0,0.2-0.1,0.3-0.2,0.4c-0.1,0.1-0.3,0.2-0.4,0.2h-6.8h-5.6h-0.6c-0.5,0-1-0.1-1.5-0.3
		c-0.5-0.2-0.9-0.5-1.2-0.8c-0.3-0.3-0.6-0.7-0.8-1.2c-0.2-0.5-0.3-1-0.3-1.5v-0.6v-2.4V9.9V7.8V5.3c0-0.5,0.1-1,0.3-1.5
		C50.4,3.4,50.6,3,51,2.6c0.3-0.3,0.7-0.6,1.2-0.8c0.5-0.2,1-0.3,1.5-0.3h0.6h12.3c0.2,0,0.3,0.1,0.4,0.2c0.1,0.1,0.2,0.3,0.2,0.4
		v4.3c0,0.2-0.1,0.3-0.2,0.4S66.7,7,66.6,7H56.2C56,7,55.9,7.1,55.7,7.2z"/>
	<path class="st0" d="M85.2,11.1c-0.1,0.1-0.1,0.1,0,0.2l7.6,12.4c0.1,0.2,0.1,0.3,0,0.4c-0.1,0.1-0.2,0.1-0.4,0.1H87
		c-0.2,0-0.3,0-0.5-0.1c-0.2-0.1-0.3-0.2-0.4-0.4l-4.9-8.8c-0.1-0.1-0.1-0.1-0.2,0l-2.7,2.9c-0.1,0.1-0.2,0.3-0.3,0.5
		C78,18.4,78,18.6,78,18.8v4.8c0,0.4-0.2,0.6-0.6,0.6h-4.5c-0.4,0-0.6-0.2-0.6-0.6V2.1c0-0.4,0.2-0.6,0.6-0.6h4.5
		c0.4,0,0.6,0.2,0.6,0.6v9.6L86.3,2c0.1-0.1,0.3-0.2,0.5-0.3c0.2-0.1,0.4-0.1,0.5-0.1h5.4c0.2,0,0.3,0,0.3,0.1c0,0.1,0,0.2-0.1,0.3
		L85.2,11.1z"/>
	<path class="st0" d="M113.7,7.2c-0.1,0.1-0.2,0.2-0.2,0.4v10.5c0,0.2,0.1,0.3,0.2,0.4s0.3,0.2,0.4,0.2h10.4c0.2,0,0.3,0.1,0.4,0.2
		s0.2,0.3,0.2,0.4v4.3c0,0.2-0.1,0.3-0.2,0.4c-0.1,0.1-0.3,0.2-0.4,0.2h-6.8h-5.6h-0.6c-0.5,0-1-0.1-1.5-0.3
		c-0.5-0.2-0.9-0.5-1.2-0.8c-0.3-0.3-0.6-0.7-0.8-1.2c-0.2-0.5-0.3-1-0.3-1.5v-0.6v-2.4V9.9V7.8V5.3c0-0.5,0.1-1,0.3-1.5
		c0.2-0.5,0.5-0.9,0.8-1.2c0.3-0.3,0.7-0.6,1.2-0.8c0.5-0.2,1-0.3,1.5-0.3h0.6h12.3c0.2,0,0.3,0.1,0.4,0.2c0.1,0.1,0.2,0.3,0.2,0.4
		v4.3c0,0.2-0.1,0.3-0.2,0.4S124.7,7,124.5,7h-10.4C113.9,7,113.8,7.1,113.7,7.2z"/>
	<path class="st0" d="M135.9,23.5c0,0.4-0.2,0.6-0.6,0.6h-4.5c-0.4,0-0.6-0.2-0.6-0.6V2.1c0-0.4,0.2-0.6,0.6-0.6h4.5
		c0.4,0,0.6,0.2,0.6,0.6V23.5z"/>
	<path class="st0" d="M157,6.4c0,0.2-0.1,0.3-0.2,0.4C156.7,7,156.6,7,156.4,7h-4.6c-0.2,0-0.3,0.1-0.4,0.2
		c-0.1,0.1-0.2,0.2-0.2,0.4v15.9c0,0.2-0.1,0.3-0.2,0.4c-0.1,0.1-0.2,0.2-0.4,0.2h-4.5c-0.2,0-0.3-0.1-0.4-0.2
		c-0.1-0.1-0.2-0.3-0.2-0.4V7.6c0-0.2-0.1-0.3-0.2-0.4c-0.1-0.1-0.2-0.2-0.4-0.2h-4.6c-0.2,0-0.3-0.1-0.4-0.2s-0.2-0.3-0.2-0.4V2.1
		c0-0.4,0.2-0.6,0.6-0.6h4.6h1.2h4.5h1.2h4.6c0.2,0,0.3,0.1,0.4,0.2C157,1.8,157,2,157,2.1V6.4z"/>
	<path class="st0" d="M178.1,1.7c0.1,0.1,0.2,0.3,0.2,0.4v11.5c0,0.5-0.1,1-0.3,1.5c-0.2,0.5-0.5,0.9-0.8,1.2
		c-0.3,0.3-0.7,0.6-1.2,0.8c-0.5,0.2-1,0.3-1.5,0.3H172v6.1c0,0.2-0.1,0.3-0.2,0.4c-0.1,0.1-0.3,0.2-0.4,0.2h-4.5
		c-0.2,0-0.3-0.1-0.4-0.2c-0.1-0.1-0.2-0.3-0.2-0.4v-6.1h-2.5c-0.5,0-1-0.1-1.5-0.3c-0.5-0.2-0.9-0.5-1.2-0.8
		c-0.3-0.3-0.6-0.7-0.8-1.2c-0.2-0.5-0.3-1-0.3-1.5V2.1c0-0.4,0.2-0.6,0.6-0.6h4.3c0.2,0,0.3,0.1,0.4,0.2c0.1,0.1,0.2,0.3,0.2,0.4
		v9.6c0,0.2,0.1,0.3,0.2,0.4c0.1,0.1,0.2,0.2,0.4,0.2h6c0.4,0,0.6-0.2,0.6-0.6V2.1c0-0.4,0.2-0.6,0.6-0.6h4.3
		C177.8,1.5,178,1.6,178.1,1.7z"/>
</g>
</svg>
